<svg id="_3" data-name="3" xmlns="http://www.w3.org/2000/svg" viewBox="0 0 253.05 126.94"><title>form</title><g id="Meter"><g id="Shape_2" data-name="Shape 2"><path d="M239.16,649.26A125.71,125.71,0,0,0,190,748.9h55.59c0-25.34,9.77-42.65,28.43-57.29Z" transform="translate(-189.99 -621.96)" fill="#ffc815" fill-rule="evenodd"/></g><g id="Shape_3" data-name="Shape 3"><path d="M318,622a126.41,126.41,0,0,0-72.91,23l34.56,43c12.16-7.85,26.3-12.2,38.35-12.2s23.7,2.29,38.39,12.2l34.52-43A126.19,126.19,0,0,0,318,622Z" transform="translate(-189.99 -621.96)" fill="#a3cd3b" fill-rule="evenodd"/></g><g id="Shape_4" data-name="Shape 4"><path d="M395.25,649.26l-33.68,42.35c17.09,13.89,27.49,31.95,27.49,57.29h54A126.87,126.87,0,0,0,395.25,649.26Z" transform="translate(-189.99 -621.96)" fill="#0093d7" fill-rule="evenodd"/></g></g></svg>