<svg data-name="3" xmlns="http://www.w3.org/2000/svg" viewBox="0 0 253.05 126.94"><path d="M49.17 27.3A125.71 125.71 0 0 0 .01 126.94H55.6c0-25.34 9.77-42.65 28.43-57.29z" fill="#ffc815" fill-rule="evenodd" data-name="Shape 2"/><path d="M128.01.04a126.41 126.41 0 0 0-72.91 23l34.56 43c12.16-7.85 26.3-12.2 38.35-12.2s23.7 2.29 38.39 12.2l34.52-43a126.19 126.19 0 0 0-72.91-23z" fill="#a3cd3b" fill-rule="evenodd" data-name="Shape 3"/><path d="M205.26 27.3l-33.68 42.35c17.09 13.89 27.49 31.95 27.49 57.29h54a126.87 126.87 0 0 0-47.81-99.64z" fill="#0093d7" fill-rule="evenodd" data-name="Shape 4"/></svg>